@startuml
!theme bluegray
skinparam FooterFontColor black
skinparam StateFontColor black

state "Pending Start Operation" as preOp
state "Pending Dev Ack" as pendingDevAck
state "Pending Readiness Check" as pendingPreReq
state "Pending RM Deployment" as pendingRMDeploy
' state "Verify Canary Instance" as verifyCanary
' state "Pending Live Verification" as pendingLiveVer
' state pendingLiveVerFork <<fork>>
state toOtherStatus <<fork>>
' state "Pending Promote" as pendingPromote
' state "Abort Requested" as abortRequested
' state "Rollback Requested" as rollbackRequested
' state "Rollback Done" as rollbackDone

title Deployment Workflow With Readiness Check

[*] --> preOp : InitSequence

note right of preOp : [CHANGED]\n- new inert status\n- REMOVE dev noti on start operation
preOp: RM: Start Operation
preOp --> pendingPreReq : Start operation

note right of pendingPreReq : [CHANGED] \n- in addition to release-checklist-pre-req items,\n  include release-events as blockers \n- new check\n- add noti on moving to Pending Dev ACK
pendingPreReq --> pendingDevAck  : All requisites done
pendingPreReq: System: Check readiness events if done
pendingPreReq: User: TICK readiness event under user

note right of pendingDevAck : [CHANGED] \n- Switched state flow to\n  PendingPreReq -> PendingDevAck
pendingDevAck --> pendingRMDeploy : All ACKed
pendingDevAck: Dev: ACK


pendingRMDeploy: RM: Deploys
' pendingRMDeploy --> Deploying : RM deploy

pendingRMDeploy --> toOtherStatus
note right of toOtherStatus: to other status

' Deploying : RM: Monitoring
' Deploying : RM: Abort

' Deploying --> Aborted : Abort

' Deploying --> Failed : Fails

' Failed --> pendingDevAck : Reinitiate
' Failed: RM: Reinitiate

' Deploying --> verifyCanary : progress with Canary
' verifyCanary: Dev: Ack
' verifyCanary: Dev: Request abort

' verifyCanary --> pendingPromote : All ACK
' pendingPromote: RM: Promoteƒ

' verifyCanary --> abortRequested : Request abort
' abortRequested: RM: Abort

' abortRequested --> Aborted : RM abort
' Aborted: Rm : Reinitiate

' Aborted --> pendingDevAck : Reinitiate
' pendingPromote: RM: Reinitiate

' pendingPromote --> pendingLiveVerFork : Promote
' note right of pendingLiveVerFork : Need Live\nVerification
' pendingLiveVerFork --> pendingLiveVer : True
' pendingLiveVerFork --> Done : False

' pendingLiveVer --> Done :All dev ACK\n All CIDs deployed
' pendingLiveVer --> pendingRMDeploy : not All CIDs deployed
' pendingLiveVer: Dev: ACK

' Deploying --> pendingLiveVerFork : Success\nwithout Canary

' Done: Dev: Request Rollback

' Done --> rollbackRequested
' rollbackRequested: RM: Execute rollback

' rollbackRequested --> rollbackDone : RM rollback finish
' rollbackDone: RM: Reinitiate

' rollbackDone --> pendingDevAck : Reinitiate

@enduml